# xmcd
#
# Track frame offsets:
#	150
#	17123
#	33696
#	51059
#	68573
#	84754
#	103095
#	118135
#	136300
#	150256
#	166007
#	185956
#
# Disc length: 2735 seconds
#
# Revision: 0
# Processed by: cddbd v1.5.2PL0 Copyright (c) Steve Scherf et al.
# Submitted via: EasyCDDAExtractor 10.0.1.1
#
DISCID=950aad0c
DTITLE=Paul Black - Wake up the sun
DYEAR=1900
DGENRE=
TTITLE0=Lost in transit
TTITLE1=What a woman say
TTITLE2=King for a day
TTITLE3=Sentimental
TTITLE4=Piece of the world
TTITLE5=Run away with you
TTITLE6=The way you move me
TTITLE7=One bad note
TTITLE8=Chasing Angels
TTITLE9=Felicity Jane
TTITLE10=If only I
TTITLE11=Ballad of a superstar
EXTD=
EXTT0=
EXTT1=
EXTT2=
EXTT3=
EXTT4=
EXTT5=
EXTT6=
EXTT7=
EXTT8=
EXTT9=
EXTT10=
EXTT11=
PLAYORDER=
